Coordinates
version=1
nRows=8
nColumns=33
inDegrees=yes

Units are S.I. units (second, meters, Newtons, ...)
Angles are in degrees.

endheader
time	ground_thorax_rot_x	ground_thorax_rot_y	ground_thorax_rot_z	ground_thorax_tx	ground_thorax_ty	ground_thorax_tz	clav_prot_r	clav_elev_r	scapula_abduction_r	scapula_elevation_r	scapula_upward_rot_r	scapula_winging_r	shoulder_elv_r	plane_of_elev_r	axial_rot_r	elbow_flexion_r	pro_sup_r	wrist_flex_r	wrist_dev_r	clav_prot_l	clav_elev_l	scapula_abduction_l	scapula_elevation_l	scapula_upward_rot_l	scapula_winging_l	shoulder_elv_l	plane_of_elev_l	axial_rot_l	elbow_flexion_l	pro_sup_l	wrist_flex_l	wrist_dev_l
      3.47000000	     -3.51082785	      3.78363864	     10.69616739	     -0.09554507	      1.03080629	      0.01077918	     13.54138962	    -13.79049622	     27.63580200	     -9.42190646	      8.24193681	     -6.22322314	    -17.86721279	    -66.74061416	    115.79774710	    -68.23197955	   -174.08076745	     17.38011409	     -4.34408268	     18.98187223	     -7.39683338	    -27.87684065	    -12.89027322	    -32.19539563	      6.78672772	     62.38478229	    -13.75451250	      9.58173322	     50.86163440	      5.68900269	     16.65813237	    -11.78396858
      3.48000000	     -3.48856040	      3.85293612	     10.84113315	     -0.09617350	      1.03125715	      0.01071101	     13.40476162	    -14.15166256	     26.60255554	     -9.22230624	      6.79639125	     -5.63649690	    -18.83287733	    -67.63448151	    114.88561026	    -69.60562436	   -174.40554317	     19.40183884	     -5.52363124	     18.72969705	     -7.30685166	    -27.49910107	    -13.20883360	    -32.66585748	      6.52826973	     62.71788982	    -15.31563869	      8.57753306	     52.92219000	      4.46388848	     16.11745190	    -12.01302829
      3.49000000	     -3.32993914	      3.72694940	     10.93410358	     -0.09651871	      1.03096179	      0.01065372	     13.11050637	    -13.67907726	     25.76972428	     -8.55509324	      6.11705806	     -5.55513087	    -19.70322432	    -68.48600531	    114.95918167	    -70.95811283	   -174.35776951	     20.13552407	     -5.72708266	     18.44253718	     -6.78112055	    -27.09304666	    -13.96077771	    -33.22014097	      6.26727676	     62.42238166	    -16.17419993	      8.70221029	     54.72281248	      4.05542370	     15.95545740	    -12.33471744
      3.50000000	     -3.38706561	      3.85759348	     10.95496975	     -0.09679540	      1.03168862	      0.01052177	     12.73000238	    -14.21359133	     24.43145950	     -8.55141442	      4.80255276	     -4.72552659	    -21.00170250	    -69.48509121	    113.74301765	    -72.00410792	   -174.14158483	     23.09431947	     -7.49554226	     18.03060680	     -6.57990263	    -26.41844398	    -14.26117580	    -33.41314602	      5.89126733	     62.80342346	    -17.80031671	      7.38953933	     56.59677982	      2.82189586	     14.93918714	    -12.80409764
      3.51000000	     -3.37883713	      3.91004158	     10.87056052	     -0.09665884	      1.03202436	      0.01037606	     12.08629127	    -14.24004312	     23.07506663	     -8.37572887	      4.23136748	     -4.13665457	    -22.67452683	    -70.56243699	    112.84488721	    -72.93132095	   -173.57563331	     25.41929105	     -8.64431862	     17.57474290	     -6.03353264	    -25.66313892	    -14.83387585	    -33.51239672	      5.49779927	     62.67824323	    -18.95589468	      6.69994267	     58.23282510	      1.78862590	     13.68381015	    -13.31563515
      3.52000000	     -3.23157214	      3.80071720	     11.05512297	     -0.09713178	      1.03181175	      0.01026607	     11.86390835	    -13.74780231	     22.31748172	     -7.63177250	      3.44776004	     -4.09198314	    -23.54414681	    -71.30672563	    112.76176728	    -73.85644146	   -173.28650830	     26.08660252	     -8.84342113	     17.30494634	     -5.55084007	    -25.28646683	    -15.57632308	    -34.11694901	      5.22222732	     62.38304934	    -19.98599831	      6.65605508	     59.97437089	      1.57344419	     13.44944989	    -13.75852171
      3.53000000	     -3.11236964	      3.71808804	     11.16216489	     -0.09754712	      1.03156613	      0.01035809	     11.65623667	    -13.28976983	     21.54234379	     -6.87824853	      2.57466994	     -4.01233305	    -24.39799575	    -71.98799996	    112.66753496	    -74.91352074	   -172.87421341	     26.97690398	     -9.16500509	     17.03214338	     -5.11571406	    -24.89868049	    -16.24535784	    -34.65299255	      4.94177150	     62.21219908	    -21.08505017	      6.56821516	     61.55203552	      1.47380437	     13.16053034	    -14.27825088
      3.54000000	     -3.09793192	      3.83192542	     11.07748273	     -0.09753960	      1.03264402	      0.01027092	     11.24629087	    -13.78438821	     20.25276943	     -6.85350825	      1.35645357	     -3.22755877	    -25.85989351	    -72.83410105	    110.92363255	    -75.29854692	   -170.62253711	     30.63800755	    -11.28216551	     16.47895178	     -5.03496436	    -23.94464609	    -16.37621985	    -34.68767304	      4.43880142	     62.61663451	    -22.81687424	      5.31665590	     62.96099619	      1.92213648	     11.31420094	    -16.13168369
